<?xml version="1.0" encoding="utf-8"?>
<!-- Generator: Adobe Illustrator 24.2.0, SVG Export Plug-In . SVG Version: 6.00 Build 0)  -->
<svg version="1.1" id="svg2320" xmlns:svg="http://www.w3.org/2000/svg"
	 xmlns="http://www.w3.org/2000/svg" xmlns:xlink="http://www.w3.org/1999/xlink" x="0px" y="0px" viewBox="0 0 1024 420"
	 style="enable-background:new 0 0 1024 420;" xml:space="preserve">
<style type="text/css">
	.st0{fill:#FFFFFF;}
</style>
<g id="layer1" transform="translate(-310.37551,-505.82825)">
	<path id="path2440" class="st0" d="M457.1,505.8c-14.5-0.3-29.4,1.4-44.8,5.2c-70.9,17.7-150.2,108.8-63.6,213.9l51.7,62.6
		l14.6,17.8c9.8,11.6,25.8,11.4,37.6,1.7c11.8-9.8,15.2-25.8,5.4-37.6c0,0-4.1-5-5.9-7.2h0.2c-3.7-4.5-4.5-5.2-8.4-9.9
		c-18.7-22.5-40.1-48.5-40.1-48.5c-37.6-45.6-20.8-102,30.2-134.1c44.9-28.2,127.4-18.1,155.8,28.2
		C572,545.2,519.8,507.2,457.1,505.8z M467.5,616.1c-6.7-0.2-13.7,2.3-19.5,7.2c-11.9,9.8-15.2,25.8-5.4,37.6c0,0,1.2,1.5,3.2,4
		c22.4,26.9,52.2,63.1,52.2,63.1c37.6,45.6,20.8,101.8-30.2,133.8c-44.9,28.2-127.4,18.1-155.8-28.2c22,65,95.9,107.5,177.6,87.1
		C560.4,902.9,639.6,812,553,706.9l-60.6-73.2l-6.9-8.7C480.6,619.2,474.1,616.4,467.5,616.1z"/>
	<path id="path2448" class="st0" d="M734.6,555.8c-44.9,0-96.2,23.1-96.2,78.9c0,53.1,42.2,68,84.1,78.2
		c42.4,10.2,84.3,16.1,84.3,51.4c0,34.8-35.9,41.3-62.3,41.3c-34.9,0-67.8-12.7-69.3-53.4h-42.3c2.5,68.6,51.2,93.7,109.1,93.7
		c52.4,0,109.8-21.3,109.8-87.3c0-53.6-42-68.7-84.3-78.9c-39.4-10.2-84.3-15.5-84.3-48.2c0-27.9,29.5-35.4,54.9-35.4
		c27.9,0,56.8,11.1,59.9,46.5h42.3C836.7,575,791.4,555.8,734.6,555.8z M978.9,555.8c-57.3,0-106.8,24.1-109.3,92.7h42.3
		c2-40.7,28.4-52.4,64.3-52.4c26.9,0,57.4,6.3,57.4,46c0,34.3-39.7,31.2-86.6,40.8c-43.9,9.1-87.3,22.6-87.3,85.3
		c0,55.2,38.4,77.7,85.3,77.7c35.9,0,67.1-13.6,90.5-43c0,30,14.2,43,36.1,43c13.4,0,22.7-2.8,30.2-7.7v-35.4
		c-5.5,2.1-9.4,2.7-12.9,2.7c-13.5,0-13.4-9.5-13.4-30.9V632C1075.6,567.1,1025.3,555.8,978.9,555.8z M1200.5,555.8
		c-44.9,0-96.2,23.1-96.2,78.9c0,53.1,42.5,68,84.3,78.2c42.4,10.2,84.3,16.1,84.3,51.4c0,34.8-35.9,41.3-62.3,41.3
		c-34.9,0-67.8-12.7-69.3-53.4h-42.5c2.5,68.6,51.5,93.7,109.3,93.7c52.3,0,109.6-21.3,109.6-87.3c0-53.6-42-68.7-84.3-78.9
		c-39.4-10.2-84.1-15.5-84.1-48.2c0-27.9,29.2-35.4,54.7-35.4c27.9,0,56.8,11.1,59.9,46.5h42.5
		C1302.9,575,1257.4,555.8,1200.5,555.8z M1033.1,696.3V743c0,25.2-22.8,62.6-78.6,62.6c-25.9,0-50-10.8-50-40.8
		c0-33.8,24-44.4,51.9-49.7C984.9,709.7,1016.7,709.1,1033.1,696.3z M613.4,817.7c-8.9,0-16.6,6.9-16.6,16.3
		c0,9.4,7.6,16.3,16.6,16.3c8.9,0,16.3-6.9,16.3-16.3C629.7,824.6,622.3,817.7,613.4,817.7z M1317.3,817.7c-9,0-16.6,7-16.6,16.3
		c0,9.4,7.6,16.3,16.6,16.3c8.9,0,16.6-6.9,16.6-16.3C1333.8,824.7,1326.1,817.7,1317.3,817.7z M613.4,820.4
		c7.3,0,13.1,5.9,13.1,13.6c0,7.8-5.8,13.6-13.1,13.6c-7.5,0-13.4-5.8-13.4-13.6C600,826.3,605.9,820.4,613.4,820.4z M1317.3,820.4
		c7.3,0,13.4,5.9,13.4,13.6c0,7.8-6,13.6-13.4,13.6c-7.5,0-13.1-5.8-13.1-13.6C1304.2,826.3,1309.8,820.4,1317.3,820.4z M607,824.6
		v18.8h3v-8.2h3.2l4.9,8.2h3.2l-5.4-8.4c2.8-0.3,4.9-1.6,4.9-4.9c0-3.7-2.2-5.4-6.7-5.4H607z M1311.1,824.6v18.8h2.7v-8.2h3.5
		l4.9,8.2h3.2l-5.4-8.4c2.7-0.3,4.9-1.6,4.9-4.9c0-3.7-2.2-5.4-6.7-5.4H1311.1z M609.9,827.1h4c2,0,4,0.4,4,2.7c0,2.9-2,3-4.5,3
		h-3.5V827.1z M1313.8,827.1h4c2,0,4.2,0.4,4.2,2.7c0,2.9-2.3,3-4.7,3h-3.5V827.1z"/>
</g>
</svg>
